<mxfile host="Electron" agent="Mozilla/5.0 (Windows NT 10.0; Win64; x64) AppleWebKit/537.36 (KHTML, like Gecko) draw.io/27.0.2 Chrome/134.0.6998.205 Electron/35.3.0 Safari/537.36" version="27.0.2">
  <diagram name="Page-1" id="coDfb13NjnxEItJO5ex5">
    <mxGraphModel dx="684" dy="845" grid="1" gridSize="10" guides="1" tooltips="1" connect="1" arrows="1" fold="1" page="1" pageScale="1" pageWidth="827" pageHeight="1169" math="0" shadow="0">
      <root>
        <mxCell id="0" />
        <mxCell id="1" parent="0" />
        <mxCell id="tXhvDGBUgsrvlIxqLRt_-3" style="edgeStyle=orthogonalEdgeStyle;rounded=0;orthogonalLoop=1;jettySize=auto;html=1;exitX=0.5;exitY=1;exitDx=0;exitDy=0;entryX=0.5;entryY=0;entryDx=0;entryDy=0;" edge="1" parent="1" source="tXhvDGBUgsrvlIxqLRt_-1" target="tXhvDGBUgsrvlIxqLRt_-2">
          <mxGeometry relative="1" as="geometry" />
        </mxCell>
        <mxCell id="tXhvDGBUgsrvlIxqLRt_-1" value="" style="ellipse;fillColor=strokeColor;html=1;" vertex="1" parent="1">
          <mxGeometry x="414" y="30" width="30" height="30" as="geometry" />
        </mxCell>
        <mxCell id="tXhvDGBUgsrvlIxqLRt_-2" value="App Launch" style="html=1;align=center;verticalAlign=top;rounded=1;absoluteArcSize=1;arcSize=10;dashed=0;whiteSpace=wrap;" vertex="1" parent="1">
          <mxGeometry x="373.5" y="130" width="111" height="30" as="geometry" />
        </mxCell>
        <mxCell id="tXhvDGBUgsrvlIxqLRt_-4" value="Enter Destination" style="html=1;align=center;verticalAlign=top;rounded=1;absoluteArcSize=1;arcSize=10;dashed=0;whiteSpace=wrap;" vertex="1" parent="1">
          <mxGeometry x="373.5" y="220" width="121" height="30" as="geometry" />
        </mxCell>
        <mxCell id="tXhvDGBUgsrvlIxqLRt_-5" style="edgeStyle=orthogonalEdgeStyle;rounded=0;orthogonalLoop=1;jettySize=auto;html=1;exitX=0.5;exitY=1;exitDx=0;exitDy=0;entryX=0.445;entryY=0.119;entryDx=0;entryDy=0;entryPerimeter=0;" edge="1" parent="1" source="tXhvDGBUgsrvlIxqLRt_-2" target="tXhvDGBUgsrvlIxqLRt_-4">
          <mxGeometry relative="1" as="geometry" />
        </mxCell>
        <mxCell id="tXhvDGBUgsrvlIxqLRt_-6" value="Start" style="edgeLabel;html=1;align=center;verticalAlign=middle;resizable=0;points=[];" vertex="1" connectable="0" parent="tXhvDGBUgsrvlIxqLRt_-5">
          <mxGeometry x="-0.2097" y="1" relative="1" as="geometry">
            <mxPoint as="offset" />
          </mxGeometry>
        </mxCell>
        <mxCell id="tXhvDGBUgsrvlIxqLRt_-13" style="edgeStyle=orthogonalEdgeStyle;rounded=0;orthogonalLoop=1;jettySize=auto;html=1;exitX=0.5;exitY=1;exitDx=0;exitDy=0;entryX=0.5;entryY=0;entryDx=0;entryDy=0;" edge="1" parent="1" source="tXhvDGBUgsrvlIxqLRt_-7" target="tXhvDGBUgsrvlIxqLRt_-10">
          <mxGeometry relative="1" as="geometry" />
        </mxCell>
        <mxCell id="tXhvDGBUgsrvlIxqLRt_-7" value="Set Arrival Time" style="html=1;align=center;verticalAlign=top;rounded=1;absoluteArcSize=1;arcSize=10;dashed=0;whiteSpace=wrap;" vertex="1" parent="1">
          <mxGeometry x="374" y="310" width="106" height="30" as="geometry" />
        </mxCell>
        <mxCell id="tXhvDGBUgsrvlIxqLRt_-8" style="edgeStyle=orthogonalEdgeStyle;rounded=0;orthogonalLoop=1;jettySize=auto;html=1;exitX=0.5;exitY=1;exitDx=0;exitDy=0;entryX=0.579;entryY=0.141;entryDx=0;entryDy=0;entryPerimeter=0;" edge="1" parent="1" source="tXhvDGBUgsrvlIxqLRt_-4" target="tXhvDGBUgsrvlIxqLRt_-7">
          <mxGeometry relative="1" as="geometry" />
        </mxCell>
        <mxCell id="tXhvDGBUgsrvlIxqLRt_-9" value="Input Destination" style="edgeLabel;html=1;align=center;verticalAlign=middle;resizable=0;points=[];" vertex="1" connectable="0" parent="tXhvDGBUgsrvlIxqLRt_-8">
          <mxGeometry x="-0.0019" y="1" relative="1" as="geometry">
            <mxPoint y="1" as="offset" />
          </mxGeometry>
        </mxCell>
        <mxCell id="tXhvDGBUgsrvlIxqLRt_-15" style="edgeStyle=orthogonalEdgeStyle;rounded=0;orthogonalLoop=1;jettySize=auto;html=1;exitX=1;exitY=0.5;exitDx=0;exitDy=0;" edge="1" parent="1" source="tXhvDGBUgsrvlIxqLRt_-10" target="tXhvDGBUgsrvlIxqLRt_-14">
          <mxGeometry relative="1" as="geometry" />
        </mxCell>
        <mxCell id="tXhvDGBUgsrvlIxqLRt_-16" value="Set" style="edgeLabel;html=1;align=center;verticalAlign=middle;resizable=0;points=[];" vertex="1" connectable="0" parent="tXhvDGBUgsrvlIxqLRt_-15">
          <mxGeometry x="-0.0193" y="-3" relative="1" as="geometry">
            <mxPoint as="offset" />
          </mxGeometry>
        </mxCell>
        <mxCell id="tXhvDGBUgsrvlIxqLRt_-10" value="Set Preferences" style="html=1;align=center;verticalAlign=top;rounded=1;absoluteArcSize=1;arcSize=10;dashed=0;whiteSpace=wrap;" vertex="1" parent="1">
          <mxGeometry x="364" y="390" width="126" height="30" as="geometry" />
        </mxCell>
        <mxCell id="tXhvDGBUgsrvlIxqLRt_-20" style="edgeStyle=orthogonalEdgeStyle;rounded=0;orthogonalLoop=1;jettySize=auto;html=1;exitX=0.5;exitY=1;exitDx=0;exitDy=0;entryX=0.5;entryY=0;entryDx=0;entryDy=0;" edge="1" parent="1" source="tXhvDGBUgsrvlIxqLRt_-14" target="tXhvDGBUgsrvlIxqLRt_-19">
          <mxGeometry relative="1" as="geometry" />
        </mxCell>
        <mxCell id="tXhvDGBUgsrvlIxqLRt_-21" value="Choose Option" style="edgeLabel;html=1;align=center;verticalAlign=middle;resizable=0;points=[];" vertex="1" connectable="0" parent="tXhvDGBUgsrvlIxqLRt_-20">
          <mxGeometry x="0.0566" relative="1" as="geometry">
            <mxPoint as="offset" />
          </mxGeometry>
        </mxCell>
        <mxCell id="tXhvDGBUgsrvlIxqLRt_-14" value="Review Options" style="html=1;align=center;verticalAlign=top;rounded=1;absoluteArcSize=1;arcSize=10;dashed=0;whiteSpace=wrap;" vertex="1" parent="1">
          <mxGeometry x="580" y="392.5" width="110" height="25" as="geometry" />
        </mxCell>
        <mxCell id="tXhvDGBUgsrvlIxqLRt_-17" style="edgeStyle=orthogonalEdgeStyle;rounded=0;orthogonalLoop=1;jettySize=auto;html=1;exitX=0.75;exitY=0;exitDx=0;exitDy=0;entryX=0.155;entryY=0.015;entryDx=0;entryDy=0;entryPerimeter=0;" edge="1" parent="1" source="tXhvDGBUgsrvlIxqLRt_-14" target="tXhvDGBUgsrvlIxqLRt_-14">
          <mxGeometry relative="1" as="geometry">
            <Array as="points">
              <mxPoint x="663" y="360" />
              <mxPoint x="597" y="360" />
            </Array>
          </mxGeometry>
        </mxCell>
        <mxCell id="tXhvDGBUgsrvlIxqLRt_-18" value="Adjust" style="edgeLabel;html=1;align=center;verticalAlign=middle;resizable=0;points=[];" vertex="1" connectable="0" parent="tXhvDGBUgsrvlIxqLRt_-17">
          <mxGeometry x="0.0736" y="-6" relative="1" as="geometry">
            <mxPoint as="offset" />
          </mxGeometry>
        </mxCell>
        <mxCell id="tXhvDGBUgsrvlIxqLRt_-23" style="edgeStyle=orthogonalEdgeStyle;rounded=0;orthogonalLoop=1;jettySize=auto;html=1;exitX=0.5;exitY=1;exitDx=0;exitDy=0;entryX=0.5;entryY=0;entryDx=0;entryDy=0;" edge="1" parent="1" source="tXhvDGBUgsrvlIxqLRt_-19" target="tXhvDGBUgsrvlIxqLRt_-22">
          <mxGeometry relative="1" as="geometry" />
        </mxCell>
        <mxCell id="tXhvDGBUgsrvlIxqLRt_-24" value="Confirm" style="edgeLabel;html=1;align=center;verticalAlign=middle;resizable=0;points=[];" vertex="1" connectable="0" parent="tXhvDGBUgsrvlIxqLRt_-23">
          <mxGeometry x="-0.0895" relative="1" as="geometry">
            <mxPoint as="offset" />
          </mxGeometry>
        </mxCell>
        <mxCell id="tXhvDGBUgsrvlIxqLRt_-19" value="Select Journey" style="html=1;align=center;verticalAlign=top;rounded=1;absoluteArcSize=1;arcSize=10;dashed=0;whiteSpace=wrap;" vertex="1" parent="1">
          <mxGeometry x="577.5" y="490" width="115" height="30" as="geometry" />
        </mxCell>
        <mxCell id="tXhvDGBUgsrvlIxqLRt_-26" style="edgeStyle=orthogonalEdgeStyle;rounded=0;orthogonalLoop=1;jettySize=auto;html=1;exitX=0.5;exitY=1;exitDx=0;exitDy=0;entryX=0.5;entryY=0;entryDx=0;entryDy=0;" edge="1" parent="1" source="tXhvDGBUgsrvlIxqLRt_-22" target="tXhvDGBUgsrvlIxqLRt_-25">
          <mxGeometry relative="1" as="geometry" />
        </mxCell>
        <mxCell id="tXhvDGBUgsrvlIxqLRt_-27" value="Complete" style="edgeLabel;html=1;align=center;verticalAlign=middle;resizable=0;points=[];" vertex="1" connectable="0" parent="tXhvDGBUgsrvlIxqLRt_-26">
          <mxGeometry x="0.0545" y="2" relative="1" as="geometry">
            <mxPoint as="offset" />
          </mxGeometry>
        </mxCell>
        <mxCell id="tXhvDGBUgsrvlIxqLRt_-33" style="edgeStyle=orthogonalEdgeStyle;rounded=0;orthogonalLoop=1;jettySize=auto;html=1;exitX=0;exitY=0.5;exitDx=0;exitDy=0;entryX=1;entryY=0.5;entryDx=0;entryDy=0;" edge="1" parent="1" source="tXhvDGBUgsrvlIxqLRt_-22" target="tXhvDGBUgsrvlIxqLRt_-30">
          <mxGeometry relative="1" as="geometry" />
        </mxCell>
        <mxCell id="tXhvDGBUgsrvlIxqLRt_-34" value="Update" style="edgeLabel;html=1;align=center;verticalAlign=middle;resizable=0;points=[];" vertex="1" connectable="0" parent="tXhvDGBUgsrvlIxqLRt_-33">
          <mxGeometry x="-0.1412" y="1" relative="1" as="geometry">
            <mxPoint as="offset" />
          </mxGeometry>
        </mxCell>
        <mxCell id="tXhvDGBUgsrvlIxqLRt_-22" value="Execute Journey" style="html=1;align=center;verticalAlign=top;rounded=1;absoluteArcSize=1;arcSize=10;dashed=0;whiteSpace=wrap;" vertex="1" parent="1">
          <mxGeometry x="578" y="580" width="112" height="30" as="geometry" />
        </mxCell>
        <mxCell id="tXhvDGBUgsrvlIxqLRt_-29" style="edgeStyle=orthogonalEdgeStyle;rounded=0;orthogonalLoop=1;jettySize=auto;html=1;exitX=0.5;exitY=1;exitDx=0;exitDy=0;entryX=0.5;entryY=0;entryDx=0;entryDy=0;" edge="1" parent="1" source="tXhvDGBUgsrvlIxqLRt_-25" target="tXhvDGBUgsrvlIxqLRt_-28">
          <mxGeometry relative="1" as="geometry" />
        </mxCell>
        <mxCell id="tXhvDGBUgsrvlIxqLRt_-25" value="Arrive at Conferece" style="html=1;align=center;verticalAlign=top;rounded=1;absoluteArcSize=1;arcSize=10;dashed=0;whiteSpace=wrap;" vertex="1" parent="1">
          <mxGeometry x="572.5" y="670" width="125" height="30" as="geometry" />
        </mxCell>
        <mxCell id="tXhvDGBUgsrvlIxqLRt_-28" value="" style="ellipse;html=1;shape=endState;fillColor=strokeColor;" vertex="1" parent="1">
          <mxGeometry x="620" y="750" width="30" height="30" as="geometry" />
        </mxCell>
        <mxCell id="tXhvDGBUgsrvlIxqLRt_-30" value="Handle Updates" style="html=1;align=center;verticalAlign=top;rounded=1;absoluteArcSize=1;arcSize=10;dashed=0;whiteSpace=wrap;" vertex="1" parent="1">
          <mxGeometry x="400" y="580" width="110" height="30" as="geometry" />
        </mxCell>
        <mxCell id="tXhvDGBUgsrvlIxqLRt_-31" style="edgeStyle=orthogonalEdgeStyle;rounded=0;orthogonalLoop=1;jettySize=auto;html=1;exitX=0;exitY=0.5;exitDx=0;exitDy=0;entryX=0.17;entryY=-0.016;entryDx=0;entryDy=0;entryPerimeter=0;" edge="1" parent="1" source="tXhvDGBUgsrvlIxqLRt_-30" target="tXhvDGBUgsrvlIxqLRt_-22">
          <mxGeometry relative="1" as="geometry" />
        </mxCell>
        <mxCell id="tXhvDGBUgsrvlIxqLRt_-32" value="Continue Journey" style="edgeLabel;html=1;align=center;verticalAlign=middle;resizable=0;points=[];" vertex="1" connectable="0" parent="tXhvDGBUgsrvlIxqLRt_-31">
          <mxGeometry x="0.0321" y="-8" relative="1" as="geometry">
            <mxPoint x="4" y="-8" as="offset" />
          </mxGeometry>
        </mxCell>
      </root>
    </mxGraphModel>
  </diagram>
</mxfile>
